Snowtown (2011) 1080p MKV x264 AC3 English NL Subs
.
*****Gebaseerd op ware gebeurtenissen*****
.
[IMG]http://img546.imageshack.us/img546/9163/st2011.jpg[/IMG]
.
AustraliÙ
Thriller / Drama
120 minuten

geregisseerd door Justin Kurzel
met Daniel Henshall, Lucas Pittaway en Craig Coyne

Wanneer de 16-jarige Jamie voorgesteld wordt aan een charismatische man ontstaat er tussen hen een vriendschap. Naarmate de relatie groeit, krijgt Jamie steeds meer bedenkingen tegenover hem. Dan komt hij erachter dat zijn leven wordt bedreigd door zowel zijn loyaliteit jegens en zijn angst voor zijn nieuwe vaderfiguur...
. 
http://www.moviemeter.nl/film/75874
.
PLOT
.
Based on true events, 16 year-old Jamie falls in with his mother's new boyfriend and his crowd of self-appointed neighborhood watchmen, a relationship that leads to a spree of torture and murder. 
. 
http://www.imdb.com/title/tt1680114/
.
INFO
.
NL Vertaling: Rosa Carolina.
Controle en bewerking: Goffini.
.
Enjoy
.
Format                           : Matroska
Format version                   : Version 2
File size                        : 8.75 GiB
Duration                         : 2h 0mn
Overall bit rate                 : 10.4 Mbps
Encoded date                     : UTC 2012-01-27 19:16:12
Writing application              : mkvmerge v5.2.1 ('A Far Off Place') built on Jan  2 2012 23:21:10
Writing library                  : libebml v1.2.3 + libmatroska v1.3.0

Video
ID                               : 1
Format                           : AVC
Format/Info                      : Advanced Video Codec
Format profile                   : High@L4.1
Format settings, CABAC           : Yes
Format settings, ReFrames        : 4 frames
Codec ID                         : V_MPEG4/ISO/AVC
Duration                         : 2h 0mn
Bit rate                         : 9 785 Kbps
Width                            : 1 920 pixels
Height                           : 1 040 pixels
Display aspect ratio             : 16:9
Frame rate                       : 24.000 fps
Color space                      : YUV
Chroma subsampling               : 4:2:0
Bit depth                        : 8 bits
Scan type                        : Progressive
Bits/(Pixel*Frame)               : 0.204
Stream size                      : 8.04 GiB (92%)
Writing library                  : x264 core 118 r2085 8a62835
Encoding settings                : cabac=1 / ref=4 / deblock=1:0:0 / analyse=0x3:0x133 / me=umh / subme=8 / psy=1 / psy_rd=1.00:0.00 / mixed_ref=1 / me_range=16 / chroma_me=1 / trellis=1 / 8x8dct=1 / cqm=0 / deadzone=21,11 / fast_pskip=0 / chroma_qp_offset=-2 / threads=12 / sliced_threads=0 / nr=0 / decimate=1 / interlaced=0 / bluray_compat=0 / constrained_intra=0 / bframes=3 / b_pyramid=2 / b_adapt=1 / b_bias=0 / direct=1 / weightb=1 / open_gop=0 / weightp=2 / keyint=250 / keyint_min=25 / scenecut=40 / intra_refresh=0 / rc_lookahead=40 / rc=2pass / mbtree=1 / bitrate=9785 / ratetol=1.0 / qcomp=0.60 / qpmin=0 / qpmax=69 / qpstep=4 / cplxblur=20.0 / qblur=0.5 / ip_ratio=1.40 / aq=1:1.00
Language                         : English
Default                          : Yes
Forced                           : No

Audio
ID                               : 2
Format                           : AC-3
Format/Info                      : Audio Coding 3
Mode extension                   : CM (complete main)
Codec ID                         : A_AC3
Duration                         : 2h 0mn
Bit rate mode                    : Constant
Bit rate                         : 640 Kbps
Channel(s)                       : 6 channels
Channel positions                : Front: L C R, Side: L R, LFE
Sampling rate                    : 48.0 KHz
Bit depth                        : 16 bits
Compression mode                 : Lossy
Stream size                      : 550 MiB (6%)
Title                            : AC3
Language                         : English
Default                          : Yes
Forced                           : No

Text #1
ID                               : 3
Format                           : UTF-8
Codec ID                         : S_TEXT/UTF8
Codec ID/Info                    : UTF-8 Plain Text
Title                            : Nderlands
Language                         : Dutch
Default                          : Yes
Forced                           : No

Text #2
ID                               : 4
Format                           : VobSub
Muxing mode                      : zlib
Codec ID                         : S_VOBSUB
Codec ID/Info                    : The same subtitle format used on DVDs
Language                         : English
Default                          : No
Forced                           : No
